HIERARCHY
ROOT ui
{
	 OFFSET 0 0 0
	 CHANNELS 3 XPosition YPosition Z Position
	 EndSite
	 {
	 OFFSET 0 -1 0
	 }
}
ROOT li
{
	 OFFSET 0 0 0
	 CHANNELS 3 XPosition YPosition Z Position
	 EndSite
	 {
	 OFFSET 0 -1 0
	 }
}
ROOT ul
{
	 OFFSET 0 0 0
	 CHANNELS 3 XPosition YPosition Z Position
	 EndSite
	 {
	 OFFSET 0 -1 0
	 }
}
ROOT ll
{
	 OFFSET 0 0 0
	 CHANNELS 3 XPosition YPosition Z Position
	 EndSite
	 {
	 OFFSET 0 -1 0
	 }
}
ROOT tt
{
	 OFFSET 0 0 0
	 CHANNELS 3 XPosition YPosition Z Position
	 EndSite
	 {
	 OFFSET 0 -1 0
	 }
}
ROOT tb
{
	 OFFSET 0 0 0
	 CHANNELS 3 XPosition YPosition Z Position
	 EndSite
	 {
	 OFFSET 0 -1 0
	 }
}
ROOT td
{
	 OFFSET 0 0 0
	 CHANNELS 3 XPosition YPosition Z Position
	 EndSite
	 {
	 OFFSET 0 -1 0
	 }
}
ROOT v
{
	 OFFSET 0 0 0
	 CHANNELS 3 XPosition YPosition Z Position
	 EndSite
	 {
	 OFFSET 0 -1 0
	 }
}
ROOT bn
{
	 OFFSET 0 0 0
	 CHANNELS 3 XPosition YPosition Z Position
	 EndSite
	 {
	 OFFSET 0 -1 0
	 }
}
MOTION
Frames: 18
Frame Time: 0.002
0.013171809196472168	-0.0016832619905471802	0		0.51650732421875	-2.5146611328125	0		-1.070958740234375	-0.00414064884185791	0		-0.6776060791015625	-2.58964990234375	0		1.9754249267578126	-0.9650921630859375	0		3.52520068359375	-0.395830078125	0		4.72521142578125	-0.10490117645263672	0		5.95835791015625	0.419604248046875	0		-0.08831886291503906	5.92621142578125	0		
-0.06621307373046875	4.790309965610504E-4	0		0.4750840148925781	-2.512019287109375	0		-1.06227099609375	0.0028598339557647707	0		-0.6610763549804688	-2.590763671875	0		1.978242431640625	-0.9470707397460938	0		3.5156943359375	-0.402675048828125	0		4.68775341796875	-0.10839340972900391	0		5.94994775390625	0.4186983947753906	0		-0.12170117950439453	5.9197587890625	0		
0.0163485107421875	0.0024577929973602294	0		0.5165032958984375	-2.516499267578125	0		-1.0326641845703124	0.00857193660736084	0		-0.6514674072265625	-2.580791015625	0		1.937280029296875	-0.9074691162109375	0		3.53009228515625	-0.4118541870117188	0		4.70007666015625	-0.12356927490234375	0		5.9535927734375	0.4266155090332031	0		-0.12386183166503906	5.933880859375	0		
-0.03716706085205078	0.003258397102355957	0		0.49918527221679687	-2.497196533203125	0		-1.045048583984375	0.018842123031616212	0		-0.5978606567382813	-2.567419189453125	0		1.9649393310546874	-0.8928035278320312	0		3.483876953125	-0.3882270812988281	0		4.68851416015625	-0.12643712615966796	0		5.94897412109375	0.41862628173828126	0		-0.12244094848632812	5.91994482421875	0		
0.011226200103759765	-0.0013237709999084472	0		0.4975388488769531	-2.5001162109375	0		-1.0296925048828125	0.011728973388671874	0		-0.6673405151367188	-2.557396484375	0		1.9247249755859375	-0.8662332763671875	0		3.476185302734375	-0.39813406372070315	0		4.6756943359375	-0.1463035125732422	0		5.93532861328125	0.41074322509765626	0		-0.08877471923828124	5.92556640625	0		
0.010673784255981445	-0.0012560290098190307	0		0.5249237670898438	-2.50043896484375	0		-1.02113720703125	0.019699310302734373	0		-0.5930018310546875	-2.561326416015625	0		1.9125179443359375	-0.8390516967773437	0		3.446639404296875	-0.396757568359375	0		4.6648955078125	-0.16421107482910155	0		5.9347861328125	0.4106684875488281	0		-0.08918458557128907	5.92563623046875	0		
0.010141414642333984	-0.0011997560262680053	0		0.47446923828125	-2.489718994140625	0		-1.0006980590820314	0.0174969482421875	0		-0.6604292602539062	-2.5483486328125	0		1.8833197021484376	-0.8126522827148438	0		3.462919677734375	-0.4100159912109375	0		4.65618408203125	-0.17716111755371095	0		5.94324951171875	0.40945538330078124	0		-0.12266117858886719	5.91914306640625	0		
0.01370511817932129	0.0027891449928283693	0		0.471118896484375	-2.47464794921875	0		-0.9920936279296875	0.024443708419799804	0		-0.6528635864257812	-2.539397216796875	0		1.8831885986328125	-0.7846594848632813	0		3.445596923828125	-0.3968316650390625	0		4.64263623046875	-0.18106024169921875	0		5.94277001953125	0.4093463134765625	0		-0.12398543548583985	5.920203125	0		
0.009222413063049316	-0.0011265170574188232	0		0.47062460327148437	-2.474630615234375	0		-1.00033056640625	0.03860741806030273	0		-0.6493055419921875	-2.53540478515625	0		1.8800657958984375	-0.760640869140625	0		3.454115966796875	-0.40001513671875	0		4.646025390625	-0.1942064514160156	0		5.938474609375	0.41827243041992185	0		-0.1242574005126953	5.920236328125	0		
0.008871569633483886	-0.0011119999885559082	0		0.5142435913085938	-2.472228271484375	0		-1.0006803588867188	0.038649253845214844	0		-0.6575743408203125	-2.524264404296875	0		1.84495654296875	-0.7412017822265625	0		3.427838623046875	-0.3937400817871094	0		4.62852099609375	-0.20508473205566408	0		5.94179443359375	0.3930743103027344	0		-0.09038302612304687	5.924791015625	0		
0.005571939945220947	-0.004072577953338623	0		0.45314111328125	-2.45541259765625	0		-1.012800537109375	0.048838024139404294	0		-0.6579024047851563	-2.524248046875	0		1.8370877685546876	-0.7111474609375	0		3.407679931640625	-0.385563232421875	0		4.61112158203125	-0.21498008728027343	0		5.92965625	0.40107302856445315	0		-0.09046591949462891	5.92579150390625	0		
0.008457429885864258	-0.0011327650547027588	0		0.46383514404296877	-2.46159375	0		-1.0079000854492188	0.0527784538269043	0		-0.6920281982421875	-2.516783935546875	0		1.8131888427734375	-0.6908903198242188	0		3.368435791015625	-0.3911417236328125	0		4.602783203125	-0.22801524353027344	0		5.93340234375	0.3928368530273437	0		-0.12355039978027343	5.9192275390625	0		
0.012470354080200195	0.0027756710052490234	0		0.4380296936035156	-2.439288330078125	0		-0.99477685546875	0.06459082794189454	0		-0.646061279296875	-2.51143212890625	0		1.795911376953125	-0.633735107421875	0		3.419378662109375	-0.3919700927734375	0		4.5955576171875	-0.24108131408691405	0		5.942357421875	0.39151351928710937	0		-0.09215709686279297	5.93876806640625	0		
0.012550219535827637	0.002721679925918579	0		0.5080218505859375	-2.4413154296875	0		-0.9946952514648437	0.06456462097167968	0		-0.6688562622070312	-2.4971533203125	0		1.8051240234375	-0.6229629516601562	0		3.370699462890625	-0.3734466247558594	0		4.6055751953125	-0.24539872741699217	0		5.93757177734375	0.4003638000488281	0		-0.12318531799316407	5.91914453125	0		
0.008701631546020508	-0.0012948019504547118	0		0.45422116088867187	-2.436658203125	0		-0.9985421752929687	0.060575733184814455	0		-0.6796075439453125	-2.489055908203125	0		1.8144635009765624	-0.6122089233398438	0		3.366702880859375	-0.3875541687011719	0		4.58863818359375	-0.2553615264892578	0		5.93367919921875	0.3921853637695312	0		-0.12380327606201172	5.92009033203125	0		
0.009035991668701173	-0.0013852510452270507	0		0.4725709228515625	-2.43100927734375	0		-0.9941513061523437	0.06445687866210938	0		-0.6793402099609375	-2.4891279296875	0		1.7680341796875	-0.5937015380859375	0		3.360999755859375	-0.38965216064453123	0		4.580787109375	-0.2684638061523438	0		5.9338037109375	0.37593679809570313	0		-0.12330935668945313	5.92000341796875	0		
0.009498361587524415	-0.001495028018951416	0		0.4310016174316406	-2.428551025390625	0		-0.9886463012695312	0.06730387115478516	0		-0.6660267944335938	-2.495398681640625	0		1.7708677978515626	-0.565887451171875	0		3.3495224609375	-0.3846839599609375	0		4.583048828125	-0.2827190551757813	0		5.9272626953125	0.3747694091796875	0		-0.08861299133300782	5.9254267578125	0		
0.01008603286743164	-0.0016245330572128296	0		0.46255419921875	-2.427120361328125	0		-0.9948624267578124	0.08129452514648437	0		-0.745216064453125	-2.474406005859375	0		1.763663818359375	-0.549951171875	0		3.34828076171875	-0.37186932373046877	0		4.574658203125	-0.28083688354492187	0		5.9270810546875	0.3905063781738281	0		-0.0916573944091797	5.941353515625	0		
